<svg xmlns="http://www.w3.org/2000/svg" viewBox="0 0 386.32 386.32"><defs><style>.cls-1{fill:#333;}.cls-2{fill:#fff;}.cls-3{fill:none;stroke:#fff;stroke-miterlimit:10;stroke-width:15px;}</style></defs><g id="Layer_2" data-name="Layer 2"><g id="Layer_1-2" data-name="Layer 1"><rect class="cls-1" width="386.32" height="386.32" rx="61.36"/><rect class="cls-2" x="334.86" y="165.04" width="39.33" height="147.33" rx="19.67"/><rect class="cls-2" x="10.86" y="165.04" width="39.33" height="147.33" rx="19.67"/><path class="cls-3" d="M30.19,175.7C30.19-12.3,354.86-11,354.86,171"/><path class="cls-2" d="M236.21,309.92h32.91a2.17,2.17,0,0,1,2.17,2.17v5.37a6.45,6.45,0,0,1-6.45,6.45H240.5a6.45,6.45,0,0,1-6.45-6.45v-5.37A2.17,2.17,0,0,1,236.21,309.92Z"/><path class="cls-2" d="M120.07,309.92H153a2.17,2.17,0,0,1,2.17,2.17v4.7a7.13,7.13,0,0,1-7.13,7.13H125a7.13,7.13,0,0,1-7.13-7.13v-4.7a2.17,2.17,0,0,1,2.17-2.17Z"/></g></g></svg>