<svg xmlns="http://www.w3.org/2000/svg" viewBox="0 0 386.32 386.32"><defs><style>.cls-1{fill:#333;}.cls-2{fill:#fff;}.cls-3{fill:none;stroke:#fff;stroke-miterlimit:10;stroke-width:15px;}.cls-4{fill:#f2f2f2;}</style></defs><g id="Layer_2" data-name="Layer 2"><g id="Layer_1-2" data-name="Layer 1"><rect class="cls-1" width="386.32" height="386.32" rx="61.36"/><rect class="cls-2" x="334.86" y="165.04" width="39.33" height="147.33" rx="19.67"/><rect class="cls-2" x="10.86" y="165.04" width="39.33" height="147.33" rx="19.67"/><path class="cls-3" d="M30.19,175.7C30.19-12.3,354.86-11,354.86,171"/><path class="cls-4" d="M233.61,259.91v41.2a18.63,18.63,0,0,0,18.63,18.62h0a18.62,18.62,0,0,0,18.62-18.62V276.85a1.78,1.78,0,0,0-1-1.58l-33.72-16.94A1.77,1.77,0,0,0,233.61,259.91Z"/><path class="cls-4" d="M154.19,259.91v41.2a18.62,18.62,0,0,1-18.62,18.62h0A18.62,18.62,0,0,1,117,301.11V276.85a1.76,1.76,0,0,1,1-1.58l33.72-16.94A1.76,1.76,0,0,1,154.19,259.91Z"/></g></g></svg>