<svg xmlns="http://www.w3.org/2000/svg" viewBox="0 0 386.32 386.32"><defs><style>.cls-1{fill:#333;}.cls-2{fill:#fff;}.cls-3,.cls-4{fill:none;stroke-miterlimit:10;}.cls-3{stroke:#fff;stroke-width:15px;}.cls-4{stroke:#f2f2f2;stroke-linecap:round;stroke-width:10px;}</style></defs><g id="Layer_2" data-name="Layer 2"><g id="Layer_1-2" data-name="Layer 1"><rect class="cls-1" width="386.32" height="386.32" rx="61.36"/><rect class="cls-2" x="334.86" y="165.04" width="39.33" height="147.33" rx="19.67"/><rect class="cls-2" x="10.86" y="165.04" width="39.33" height="147.33" rx="19.67"/><path class="cls-3" d="M30.19,175.7C30.19-12.3,354.86-11,354.86,171"/><path class="cls-4" d="M152.28,310.48c0-7,.13-13.64-.14-20.33a17.21,17.21,0,0,0-4.94-11.92,16.8,16.8,0,0,0-11.92-4.94h-3.53a16.86,16.86,0,0,0-16.86,16.86c0,4.36-.11,11.33,0,20.06"/><path class="cls-4" d="M268.28,310.48c0-7,.13-13.64-.14-20.33a17.21,17.21,0,0,0-4.94-11.92,16.8,16.8,0,0,0-11.92-4.94h-3.53a16.86,16.86,0,0,0-16.86,16.86c0,4.36-.11,11.33,0,20.06"/></g></g></svg>