<svg xmlns="http://www.w3.org/2000/svg" viewBox="0 0 386.32 386.32"><defs><style>.cls-1{fill:#333;}.cls-2{fill:#fff;}.cls-3{fill:none;stroke:#fff;stroke-miterlimit:10;stroke-width:15px;}</style></defs><g id="Layer_2" data-name="Layer 2"><g id="Layer_1-2" data-name="Layer 1"><rect class="cls-1" width="386.32" height="386.32" rx="61.36"/><rect class="cls-2" x="334.86" y="165.04" width="39.33" height="147.33" rx="19.67"/><rect class="cls-2" x="10.86" y="165.04" width="39.33" height="147.33" rx="19.67"/><path class="cls-3" d="M30.19,175.7C30.19-12.3,354.86-11,354.86,171"/><path class="cls-2" d="M115.61,292.17v38.09a18.63,18.63,0,0,0,18.63,18.62h0a18.62,18.62,0,0,0,18.62-18.62V310.32a2.91,2.91,0,0,0-1.45-2.52L120,289.66A2.91,2.91,0,0,0,115.61,292.17Z"/><path class="cls-2" d="M268.53,293.51v38.08a18.62,18.62,0,0,1-18.63,18.62h0a18.62,18.62,0,0,1-18.62-18.62V311.65a2.93,2.93,0,0,1,1.45-2.52L264.16,291A2.91,2.91,0,0,1,268.53,293.51Z"/></g></g></svg>