<svg id="Layer_1" data-name="Layer 1" xmlns="http://www.w3.org/2000/svg" viewBox="0 0 386.32 386.32"><defs><style>.cls-1{fill:#8b64fa;}.cls-2{fill:#f2f2f2;}.cls-3{fill:none;stroke:#fff;stroke-miterlimit:10;stroke-width:15px;}</style></defs><g id="Layer_2" data-name="Layer 2"><g id="Layer_1-2" data-name="Layer 1-2"><rect class="cls-1" width="386.32" height="386.32" rx="61.36"/><rect class="cls-2" x="232.28" y="251.35" width="37.25" height="95.49" rx="16.86"/><rect class="cls-2" x="116.14" y="251.35" width="37.25" height="95.49" rx="16.86"/><path class="cls-2" d="M354.52,165h0a19.67,19.67,0,0,1,19.67,19.67v108a19.67,19.67,0,0,1-19.67,19.67h0a19.67,19.67,0,0,1-19.66-19.67v-108A19.67,19.67,0,0,1,354.52,165Z"/><path class="cls-2" d="M30.53,165h0a19.67,19.67,0,0,1,19.66,19.67v108a19.67,19.67,0,0,1-19.66,19.67h0A19.67,19.67,0,0,1,10.86,292.7v-108A19.67,19.67,0,0,1,30.53,165Z"/><path class="cls-3" d="M30.19,175.7c0-188,324.67-186.7,324.67-4.7"/></g></g></svg>