<svg xmlns="http://www.w3.org/2000/svg" viewBox="0 0 386.32 386.32"><defs><style>.cls-1{fill:#333;}.cls-2{fill:#fff;}.cls-3{fill:none;stroke:#fff;stroke-miterlimit:10;stroke-width:15px;}.cls-4{fill:#f2f2f2;}</style></defs><g id="Layer_2" data-name="Layer 2"><g id="Layer_1-2" data-name="Layer 1"><rect class="cls-1" width="386.32" height="386.32" rx="61.36"/><rect class="cls-2" x="334.86" y="165.04" width="39.33" height="147.33" rx="19.67"/><rect class="cls-2" x="10.86" y="165.04" width="39.33" height="147.33" rx="19.67"/><path class="cls-3" d="M30.19,175.7C30.19-12.3,354.86-11,354.86,171"/><path class="cls-4" d="M143.34,308.56l4.11-1.36c.48-.24,1.07-.54,1.71-.92.39-.23.68-.42.93-.58.46-.3,1-.67,1.63-1.11A5.89,5.89,0,0,0,153,303.2a6.13,6.13,0,0,0,.85-2l-.48-2.22a13.07,13.07,0,0,0-1.26-2.34,13.73,13.73,0,0,0-2.21-2.54l-38.29-23.85a2.12,2.12,0,0,0-2.91.68l-6.23,10a2.12,2.12,0,0,0,.68,2.91l18.43,11.48a2.11,2.11,0,0,1-.45,3.8l-21.5,7.15a2.11,2.11,0,0,0-1.34,2.67L102,320.1a2.11,2.11,0,0,0,2.67,1.33Z"/><path class="cls-4" d="M249,310.12l-4.17-1.19c-.49-.21-1.09-.49-1.75-.85l-1-.53c-.47-.28-1-.62-1.68-1a6.34,6.34,0,0,1-1.31-1.33,6.21,6.21,0,0,1-.93-2c.12-.75.25-1.5.38-2.25a12.85,12.85,0,0,1,1.16-2.39,13.52,13.52,0,0,1,2.1-2.63l37.22-25.48A2.1,2.1,0,0,1,282,271l6.66,9.72a2.12,2.12,0,0,1-.55,2.94l-17.92,12.26a2.12,2.12,0,0,0,.62,3.78l21.78,6.21a2.11,2.11,0,0,1,1.46,2.61l-3.23,11.33a2.11,2.11,0,0,1-2.61,1.45Z"/></g></g></svg>