<svg id="Layer_1" data-name="Layer 1" xmlns="http://www.w3.org/2000/svg" viewBox="0 0 386.32 386.32"><defs><style>.cls-1{fill:#8b64fa;}.cls-2{fill:#fff;}.cls-3{fill:none;stroke:#fff;stroke-miterlimit:10;stroke-width:15px;}</style></defs><g id="Layer_2" data-name="Layer 2"><g id="Layer_1-2" data-name="Layer 1-2"><rect class="cls-1" width="386.32" height="386.32" rx="61.36"/><path class="cls-2" d="M354.52,165h0a19.67,19.67,0,0,1,19.67,19.67v108a19.67,19.67,0,0,1-19.67,19.67h0a19.67,19.67,0,0,1-19.66-19.67v-108A19.67,19.67,0,0,1,354.52,165Z"/><path class="cls-2" d="M30.53,165h0a19.67,19.67,0,0,1,19.66,19.67v108a19.67,19.67,0,0,1-19.66,19.67h0A19.67,19.67,0,0,1,10.86,292.7v-108A19.67,19.67,0,0,1,30.53,165Z"/><path class="cls-3" d="M30.19,175.7c0-188,324.67-186.7,324.67-4.7"/><path class="cls-2" d="M115.61,292.17v38.09a18.63,18.63,0,0,0,18.63,18.62h0a18.62,18.62,0,0,0,18.62-18.62V310.32a2.91,2.91,0,0,0-1.45-2.52L120,289.66a2.91,2.91,0,0,0-4,1A3,3,0,0,0,115.61,292.17Z"/><path class="cls-2" d="M268.53,293.51v38.08a18.62,18.62,0,0,1-18.62,18.62h0a18.62,18.62,0,0,1-18.62-18.62V311.65a2.91,2.91,0,0,1,1.45-2.52L264.16,291a2.91,2.91,0,0,1,4,1.06A2.94,2.94,0,0,1,268.53,293.51Z"/></g></g></svg>