<svg id="Layer_1" data-name="Layer 1" xmlns="http://www.w3.org/2000/svg" viewBox="0 0 386.32 386.32"><defs><style>.cls-1{fill:#8b64fa;}.cls-2{fill:#fff;}.cls-3{fill:none;stroke:#fff;stroke-miterlimit:10;stroke-width:15px;}</style></defs><g id="Layer_2" data-name="Layer 2"><g id="Layer_1-2" data-name="Layer 1-2"><rect class="cls-1" width="386.32" height="386.32" rx="61.36"/><path class="cls-2" d="M354.52,165h0a19.67,19.67,0,0,1,19.67,19.67v108a19.67,19.67,0,0,1-19.67,19.67h0a19.67,19.67,0,0,1-19.66-19.67v-108A19.67,19.67,0,0,1,354.52,165Z"/><path class="cls-2" d="M30.53,165h0a19.67,19.67,0,0,1,19.66,19.67v108a19.67,19.67,0,0,1-19.66,19.67h0A19.67,19.67,0,0,1,10.86,292.7v-108A19.67,19.67,0,0,1,30.53,165Z"/><path class="cls-3" d="M30.19,175.7c0-188,324.67-186.7,324.67-4.7"/><path class="cls-2" d="M236.21,309.92h32.91a2.17,2.17,0,0,1,2.17,2.17h0v5.37a6.45,6.45,0,0,1-6.45,6.45H240.5a6.45,6.45,0,0,1-6.45-6.45h0v-5.37A2.18,2.18,0,0,1,236.21,309.92Z"/><path class="cls-2" d="M120.07,309.92H153a2.17,2.17,0,0,1,2.17,2.17h0v4.7a7.13,7.13,0,0,1-7.13,7.13H125a7.13,7.13,0,0,1-7.13-7.13h0v-4.7a2.17,2.17,0,0,1,2.17-2.17h0Z"/></g></g></svg>