<svg width="387" height="387" viewBox="0 0 387 387" fill="none" xmlns="http://www.w3.org/2000/svg">
<g clip-path="url(#clip0_515_8550)">
<path d="M324.96 0H61.36C27.4718 0 0 27.4718 0 61.36V324.96C0 358.848 27.4718 386.32 61.36 386.32H324.96C358.848 386.32 386.32 358.848 386.32 324.96V61.36C386.32 27.4718 358.848 0 324.96 0Z" fill="#8B64FA"/>
<path d="M374.19 184.71C374.19 173.847 365.386 165.04 354.525 165.04C343.664 165.04 334.86 173.847 334.86 184.71V292.7C334.86 303.563 343.664 312.37 354.525 312.37C365.386 312.37 374.19 303.563 374.19 292.7V184.71Z" fill="white"/>
<path d="M50.1899 184.71C50.1899 173.847 41.3855 165.04 30.5249 165.04C19.6642 165.04 10.8599 173.847 10.8599 184.71V292.7C10.8599 303.563 19.6642 312.37 30.5249 312.37C41.3855 312.37 50.1899 303.563 50.1899 292.7V184.71Z" fill="white"/>
<path d="M30.1899 175.7C30.1899 -12.3 354.86 -11 354.86 171" stroke="white" stroke-width="15" stroke-miterlimit="10"/>
<path d="M236.21 309.92H269.12C269.695 309.92 270.247 310.149 270.654 310.556C271.061 310.963 271.29 311.514 271.29 312.09V317.46C271.29 319.171 270.61 320.811 269.401 322.021C268.191 323.23 266.55 323.91 264.84 323.91H240.5C238.789 323.91 237.149 323.23 235.939 322.021C234.729 320.811 234.05 319.171 234.05 317.46V312.09C234.05 311.516 234.277 310.966 234.682 310.559C235.087 310.152 235.636 309.923 236.21 309.92Z" fill="white"/>
<path d="M120.07 309.92H153C153.576 309.92 154.128 310.149 154.535 310.556C154.941 310.963 155.17 311.514 155.17 312.09V316.79C155.17 318.681 154.419 320.495 153.082 321.832C151.745 323.169 149.931 323.92 148.04 323.92H125C123.109 323.92 121.296 323.169 119.958 321.832C118.621 320.495 117.87 318.681 117.87 316.79V312.09C117.87 311.514 118.099 310.963 118.506 310.556C118.913 310.149 119.465 309.92 120.04 309.92H120.07Z" fill="white"/>
</g>
<defs>
<clipPath id="clip0_515_8550">
<rect width="386.32" height="386.32" fill="white"/>
</clipPath>
</defs>
</svg>
