<svg id="Layer_1" data-name="Layer 1" xmlns="http://www.w3.org/2000/svg" viewBox="0 0 386.32 386.32"><defs><style>.cls-1{fill:#8b64fa;}.cls-2{fill:#fff;}.cls-3,.cls-4{fill:none;stroke-miterlimit:10;}.cls-3{stroke:#fff;stroke-width:15px;}.cls-4{stroke:#f2f2f2;stroke-linecap:round;stroke-width:10px;}</style></defs><g id="Layer_2" data-name="Layer 2"><g id="Layer_1-2" data-name="Layer 1-2"><rect class="cls-1" width="386.32" height="386.32" rx="61.36"/><path class="cls-2" d="M354.52,165h0a19.67,19.67,0,0,1,19.67,19.67v108a19.67,19.67,0,0,1-19.67,19.67h0a19.67,19.67,0,0,1-19.66-19.67v-108A19.67,19.67,0,0,1,354.52,165Z"/><path class="cls-2" d="M30.53,165h0a19.67,19.67,0,0,1,19.66,19.67v108a19.67,19.67,0,0,1-19.66,19.67h0A19.67,19.67,0,0,1,10.86,292.7v-108A19.67,19.67,0,0,1,30.53,165Z"/><path class="cls-3" d="M30.19,175.7c0-188,324.67-186.7,324.67-4.7"/><path class="cls-4" d="M152.28,310.48c0-7,.13-13.64-.14-20.33a17.22,17.22,0,0,0-4.94-11.92,16.78,16.78,0,0,0-11.92-4.94h-3.53a16.86,16.86,0,0,0-16.86,16.86h0c0,4.36-.11,11.33,0,20.06"/><path class="cls-4" d="M268.28,310.48c0-7,.13-13.64-.14-20.33a17.22,17.22,0,0,0-4.94-11.92,16.78,16.78,0,0,0-11.92-4.94h-3.53a16.86,16.86,0,0,0-16.86,16.86h0c0,4.36-.11,11.33,0,20.06"/></g></g></svg>