<svg id="Layer_1" data-name="Layer 1" xmlns="http://www.w3.org/2000/svg" viewBox="0 0 386.32 386.32"><defs><style>.cls-1{fill:#8b64fa;}.cls-2{fill:#fff;}.cls-3{fill:none;stroke:#fff;stroke-miterlimit:10;stroke-width:15px;}.cls-4{fill:#f2f2f2;}</style></defs><g id="Layer_2" data-name="Layer 2"><g id="Layer_1-2" data-name="Layer 1-2"><rect class="cls-1" width="386.32" height="386.32" rx="61.36"/><path class="cls-2" d="M354.52,165h0a19.67,19.67,0,0,1,19.67,19.67v108a19.67,19.67,0,0,1-19.67,19.67h0a19.67,19.67,0,0,1-19.66-19.67v-108A19.67,19.67,0,0,1,354.52,165Z"/><path class="cls-2" d="M30.53,165h0a19.67,19.67,0,0,1,19.66,19.67v108a19.67,19.67,0,0,1-19.66,19.67h0A19.67,19.67,0,0,1,10.86,292.7v-108A19.67,19.67,0,0,1,30.53,165Z"/><path class="cls-3" d="M30.19,175.7c0-188,324.67-186.7,324.67-4.7"/><path class="cls-4" d="M233.61,259.91v41.2a18.63,18.63,0,0,0,18.63,18.62h0a18.62,18.62,0,0,0,18.62-18.62h0V276.85a1.79,1.79,0,0,0-1-1.58l-33.72-16.94a1.78,1.78,0,0,0-2.36.84A1.71,1.71,0,0,0,233.61,259.91Z"/><path class="cls-4" d="M154.19,259.91v41.2a18.62,18.62,0,0,1-18.62,18.62h0A18.63,18.63,0,0,1,117,301.11V276.85a1.76,1.76,0,0,1,1-1.58l33.72-16.94a1.76,1.76,0,0,1,2.32.9A1.6,1.6,0,0,1,154.19,259.91Z"/></g></g></svg>