<svg xmlns="http://www.w3.org/2000/svg" viewBox="0 0 386.32 386.32"><defs><style>.cls-1{fill:#333;}.cls-2{fill:#fff;}.cls-3{fill:none;stroke:#fff;stroke-miterlimit:10;stroke-width:15px;}</style></defs><g id="Layer_2" data-name="Layer 2"><g id="Layer_1-2" data-name="Layer 1"><rect class="cls-1" width="386.32" height="386.32" rx="61.36"/><path class="cls-2" d="M236.39,281.7h27.69a4.78,4.78,0,0,1,4.78,4.78v49a14.23,14.23,0,0,1-14.23,14.23h-8.79a14.23,14.23,0,0,1-14.23-14.23v-49a4.78,4.78,0,0,1,4.78-4.78Z"/><path class="cls-2" d="M120.25,281.7h27.69a4.78,4.78,0,0,1,4.78,4.78V334A15.71,15.71,0,0,1,137,349.69h-5.82A15.71,15.71,0,0,1,115.47,334v-47.5A4.78,4.78,0,0,1,120.25,281.7Z"/><rect class="cls-2" x="334.86" y="165.04" width="39.33" height="147.33" rx="19.67"/><rect class="cls-2" x="10.86" y="165.04" width="39.33" height="147.33" rx="19.67"/><path class="cls-3" d="M30.19,175.7C30.19-12.3,354.86-11,354.86,171"/></g></g></svg>